<?xml version="1.0" encoding="UTF-8"?>
<svg id="Layer_2" data-name="Layer 2" xmlns="http://www.w3.org/2000/svg" viewBox="0 0 512 512">
  <defs>
    <style>
      .cls-1 {
        fill: #fff;
        stroke-width: 0px;
      }
    </style>
  </defs>
  <path class="cls-1" d="m255.99,477.39c-7.74,0-15.48-1.83-22.54-5.46C81.33,393.46-6.73,280.11,3.63,176.15c2.5-28.05,13.42-80.42,58.41-113.85,49.43-36.88,127.05-36.74,196.23-.43,68.48-36.09,142.67-36.19,191.74.45,46.63,34.83,56.36,91.35,58.37,114.04,10.34,103.76-77.72,217.1-229.86,295.58-7.05,3.64-14.78,5.46-22.52,5.46ZM152.76,76.31c-25.39,0-48.52,6.4-65.86,19.35-32.01,23.76-39.97,63.06-41.86,84.38-8.51,85.52,72.93,185.5,207.48,254.92,2.11,1.06,4.85,1.06,6.93,0h.02c134.55-69.42,215.99-169.4,207.5-254.72-1.54-17.32-8.65-59.81-41.86-84.61-38.16-28.47-99.53-25.35-156.3,7.94l-10.52,6.17-10.52-6.17c-30.85-18.08-64.54-27.28-95.01-27.28Z"/>
</svg>