<?xml version="1.0" encoding="UTF-8"?>
<svg id="Layer_2" data-name="Layer 2" xmlns="http://www.w3.org/2000/svg" viewBox="0 0 512 512">
  <defs>
    <style>
      .cls-1 {
        fill: #fff;
        stroke-width: 0px;
      }
    </style>
  </defs>
  <path class="cls-1" d="m229.91,448.39c-120.34,0-218.25-98-218.25-218.46,0-58.39,22.75-113.17,64.08-154.25C116.74,34.43,171.52,11.68,229.91,11.68s113.39,22.75,154.46,64.08c41.25,41,64,95.78,64,154.17s-22.75,113.12-64.04,154.42c-41.02,41.29-95.88,64.04-154.42,64.04Zm0-394.62c-47.09,0-91.28,18.35-124.41,51.67-33.4,33.21-51.75,77.4-51.75,124.49,0,97.26,79.03,176.37,176.16,176.37,47.25,0,91.5-18.35,124.61-51.67,33.38-33.4,51.75-77.65,51.75-124.7s-18.35-91.28-51.67-124.41c-33.19-33.4-77.44-51.75-124.7-51.75Z"/>
  <path class="cls-1" d="m479.3,500.35c-5.38,0-10.77-2.06-14.88-6.17l-109.86-109.84c-8.22-8.22-8.22-21.54,0-29.76s21.54-8.22,29.76,0l109.86,109.84c8.22,8.22,8.22,21.54,0,29.76-4.11,4.11-9.5,6.17-14.88,6.17Z"/>
</svg>